<svg width="10" height="11" viewBox="0 0 10 11" fill="none" xmlns="http://www.w3.org/2000/svg">
<path fill-rule="evenodd" clip-rule="evenodd" d="M9.75874 1.80344C9.60695 1.64804 9.42687 1.57034 9.21895 1.57034H8.45128V0.981449C8.45128 0.711605 8.35723 0.480541 8.1693 0.288342C7.98128 0.0961426 7.75546 0 7.49147 0H7.10769C6.84372 0 6.61781 0.0961426 6.42987 0.288363C6.24187 0.480541 6.1479 0.711627 6.1479 0.981471V1.57036H3.84475V0.981471C3.84475 0.711627 3.75073 0.480563 3.56277 0.288363C3.37485 0.0961426 3.14893 0 2.88496 0H2.50111C2.2372 0 2.01126 0.0961426 1.8233 0.288363C1.63538 0.480541 1.54134 0.711627 1.54134 0.981471V1.57036H0.773654C0.56567 1.57036 0.385754 1.64807 0.233801 1.80346C0.0818468 1.95884 0.00585938 2.14292 0.00585938 2.35555V10.2071C0.00585938 10.4196 0.0818468 10.6036 0.233801 10.7591C0.385733 10.9144 0.565649 10.9922 0.773654 10.9922H9.2188C9.42672 10.9922 9.60683 10.9144 9.75859 10.7591C9.91057 10.6037 9.98657 10.4195 9.98657 10.2071V2.35553C9.98655 2.14283 9.91063 1.95884 9.75874 1.80344ZM2.50105 10.207H0.773654V8.44031H2.50105V10.207ZM0.773654 8.04783H2.50105V6.08506H0.773654V8.04783ZM2.50105 5.69231H0.773654V3.9258H2.50105V5.69231ZM2.3092 2.74807C2.3092 2.80128 2.32817 2.8472 2.36617 2.88606C2.40418 2.92493 2.44914 2.94435 2.50111 2.94433H2.88496C2.93699 2.94433 2.98193 2.92493 3.01989 2.88606C3.05781 2.84722 3.07691 2.8013 3.07691 2.74807V0.981535C3.07691 0.928383 3.0579 0.882363 3.01989 0.843541C2.98195 0.804676 2.93693 0.785275 2.88496 0.785275H2.50111C2.44907 0.785275 2.40418 0.804676 2.36617 0.843541C2.32817 0.882342 2.3092 0.928383 2.3092 0.981535V2.74807ZM4.80433 10.207H2.88489V8.44031H4.80433V10.207ZM2.88489 8.04783H4.80433V6.08506H2.88489V8.04783ZM4.80433 5.69231H2.88489V3.9258H4.80433V5.69231ZM5.18828 10.207H7.10769V8.44031H5.18828V10.207ZM7.10769 8.04783H5.18828V6.08506H7.10769V8.04783ZM5.18828 5.69231H7.10769V3.9258H5.18828V5.69231ZM6.97267 2.88606C6.9347 2.8472 6.9158 2.80128 6.9158 2.74807V0.981535C6.9158 0.928383 6.9347 0.882342 6.97267 0.843541C7.01065 0.804676 7.05563 0.785275 7.10769 0.785275H7.49147C7.54353 0.785275 7.58846 0.804676 7.62649 0.843541C7.66447 0.882363 7.68336 0.928383 7.68336 0.981535V2.74807C7.68336 2.8013 7.66439 2.84722 7.62649 2.88606C7.58853 2.92493 7.54353 2.94433 7.49147 2.94433H7.10769C7.05565 2.94435 7.0105 2.92493 6.97267 2.88606ZM7.49132 10.207H9.2188V8.44031H7.49132V10.207ZM9.2188 8.04783H7.49132V6.08506H9.2188V8.04783ZM7.49132 5.69231H9.2188V3.9258H7.49132V5.69231Z" fill="#999999"/>
</svg>
