<?xml version="1.0" encoding="utf-8" ?>
<svg xmlns="http://www.w3.org/2000/svg" xmlns:xlink="http://www.w3.org/1999/xlink" width="25" height="25">
	<defs>
		<clipPath id="clip_0">
			<rect x="-664" y="-2985" width="1440" height="3020" clip-rule="evenodd"/>
		</clipPath>
	</defs>
	<g clip-path="url(#clip_0)">
		<path fill="rgb(255,255,255)" fill-opacity="0.69803923" stroke="none" d="M3.66211 3.66211C6.10353 1.22069 9.04946 0 12.5 0C15.9505 0 18.8965 1.22069 21.3379 3.66211C23.7793 6.10353 25 9.04946 25 12.5C25 15.9505 23.7793 18.8965 21.3379 21.3379C18.8965 23.7793 15.9505 25 12.5 25C9.04946 25 6.10353 23.7793 3.66211 21.3379C1.22069 18.8965 0 15.9505 0 12.5C0 9.04946 1.22069 6.10353 3.66211 3.66211ZM13.6364 19.8864L13.6364 12.5L15.625 12.5L15.9091 9.95794L13.6364 9.95794L13.6364 8.71089C13.6364 8.32718 13.6916 8.05539 13.8021 7.89551C13.9126 7.73563 14.1888 7.6557 14.6307 7.6557L15.8617 7.6557L15.8617 5.11364L13.8731 5.11364C12.7367 5.11364 11.9634 5.39342 11.553 5.953C11.1427 6.51257 10.9375 7.35192 10.9375 8.47108L10.9375 9.95794L9.09091 9.95794L9.09091 12.5L10.9375 12.5L10.9375 19.8864L13.6364 19.8864Z" fill-rule="evenodd"/>
	</g>

</svg>