<?xml version="1.0" encoding="utf-8" ?>
<svg xmlns="http://www.w3.org/2000/svg" xmlns:xlink="http://www.w3.org/1999/xlink" width="25" height="25">
	<defs>
		<clipPath id="clip_0">
			<rect x="-741" y="-2985" width="1440" height="3020" clip-rule="evenodd"/>
		</clipPath>
	</defs>
	<g clip-path="url(#clip_0)">
		<path fill="rgb(255,255,255)" fill-opacity="0.69803923" stroke="none" d="M12.5 0C9.04946 0 6.10353 1.22069 3.66211 3.66211C1.22069 6.10353 0 9.04946 0 12.5C0 15.9505 1.22069 18.8965 3.66211 21.3379C6.10353 23.7793 9.04946 25 12.5 25C15.9505 25 18.8965 23.7793 21.3379 21.3379C23.7793 18.8965 25 15.9505 25 12.5C25 9.04946 23.7793 6.10353 21.3379 3.66211C18.8965 1.22069 15.9505 0 12.5 0ZM9.0332 20.8984C7.6009 20.8984 6.38835 20.6299 5.39551 20.0928C4.40267 19.5557 3.90625 18.8477 3.90625 17.9688C3.90625 17.0573 4.38639 16.2354 5.34668 15.5029C6.30697 14.7705 7.45442 14.4043 8.78906 14.4043L9.66797 14.4043C9.21224 13.9486 8.98438 13.4766 8.98438 12.9883C8.98438 12.6953 9.06575 12.3861 9.22852 12.0605C9.09831 12.0931 8.95183 12.1094 8.78906 12.1094C7.68229 12.1094 6.77084 11.7594 6.05469 11.0596C5.33854 10.3597 4.98047 9.50521 4.98047 8.49609C4.98047 7.51953 5.41992 6.66504 6.29883 5.93262C7.17774 5.20019 8.18684 4.83398 9.32617 4.83398L14.3066 4.83398L13.1836 5.61523L11.6211 5.61523C12.1094 5.81055 12.5 6.17676 12.793 6.71387C13.0859 7.25098 13.2324 7.84505 13.2324 8.49609C13.2324 9.50521 12.7604 10.3678 11.8164 11.084C11.4258 11.4095 11.1654 11.6618 11.0352 11.8408C10.9049 12.0199 10.8398 12.2559 10.8398 12.5488C10.8398 12.9395 11.2793 13.444 12.1582 14.0625C12.8092 14.5508 13.265 15.0309 13.5254 15.5029C13.7858 15.9749 13.916 16.5853 13.916 17.334C13.916 18.278 13.4766 19.1081 12.5977 19.8242C11.7187 20.5404 10.5306 20.8984 9.0332 20.8984ZM10.4736 6.44531C11.0107 7.03125 11.3281 7.74739 11.4258 8.59375C11.5234 9.44011 11.3851 10.1562 11.0107 10.7422C10.6364 11.3281 10.1318 11.613 9.49707 11.5967C8.8623 11.5804 8.27637 11.263 7.73926 10.6445C7.20215 10.026 6.87663 9.30176 6.76269 8.47168C6.64876 7.6416 6.77897 6.94173 7.15332 6.37207C7.52767 5.80241 8.04036 5.52572 8.69141 5.54199C9.34245 5.55827 9.93652 5.85937 10.4736 6.44531ZM18.75 10.9863L21.875 10.9863L21.875 9.375L18.75 9.375L18.75 6.25L17.1875 6.25L17.1875 9.375L14.0625 9.375L14.0625 10.9863L17.1875 10.9863L17.1875 14.0625L18.75 14.0625L18.75 10.9863ZM10.5957 15.0391C10.1725 14.9089 9.74935 14.8438 9.32617 14.8438C8.38216 14.8438 7.54395 15.1042 6.81152 15.625C6.0791 16.1458 5.71289 16.748 5.71289 17.4316C5.71289 18.1803 6.02213 18.8151 6.64063 19.3359C7.25912 19.8568 8.04036 20.1172 8.98438 20.1172C11.4258 20.1172 12.6465 19.2546 12.6465 17.5293C12.6465 17.3665 12.6139 17.1875 12.5488 16.9922C12.5488 16.8945 12.5244 16.7969 12.4756 16.6992C12.4268 16.6016 12.3535 16.4958 12.2559 16.3818C12.1582 16.2679 12.0768 16.1784 12.0117 16.1133C11.9466 16.0482 11.849 15.9668 11.7188 15.8691C11.5885 15.7715 11.4827 15.6901 11.4014 15.625C11.32 15.5599 11.1816 15.4622 10.9863 15.332C10.791 15.2018 10.6608 15.1042 10.5957 15.0391Z" fill-rule="evenodd"/>
	</g>

</svg>