<?xml version="1.0" encoding="utf-8" ?>
<svg xmlns="http://www.w3.org/2000/svg" xmlns:xlink="http://www.w3.org/1999/xlink" width="25" height="25">
	<defs>
		<clipPath id="clip_0">
			<rect x="-702" y="-2985" width="1440" height="3020" clip-rule="evenodd"/>
		</clipPath>
	</defs>
	<g clip-path="url(#clip_0)">
		<path fill="rgb(255,255,255)" fill-opacity="0.69803923" stroke="none" d="M3.66211 3.66211C6.10353 1.22069 9.04946 0 12.5 0C15.9505 0 18.8965 1.22069 21.3379 3.66211C23.7793 6.10353 25 9.04946 25 12.5C25 15.9505 23.7793 18.8965 21.3379 21.3379C18.8965 23.7793 15.9505 25 12.5 25C9.04946 25 6.10353 23.7793 3.66211 21.3379C1.22069 18.8965 0 15.9505 0 12.5C0 9.04946 1.22069 6.10353 3.66211 3.66211ZM7.91016 6.93359C7.51953 6.93359 7.17773 6.79525 6.88477 6.51856C6.5918 6.24186 6.44531 5.90007 6.44531 5.49316Q6.44531 4.88281 6.88477 4.44336C7.17773 4.15039 7.51953 4.00391 7.91016 4.00391C8.30078 4.00391 8.64258 4.15039 8.93555 4.44336Q9.375 4.88281 9.375 5.49316C9.375 5.90007 9.22852 6.24186 8.93555 6.51856C8.64258 6.79525 8.30078 6.93359 7.91016 6.93359ZM6.25 18.5547L9.375 18.5547L9.375 7.61719L6.25 7.61719L6.25 18.5547ZM17.1875 18.5547L20.3125 18.5547L20.3125 11.8652C20.3125 10.2702 19.9788 9.16342 19.3115 8.54492C18.6442 7.92643 17.9362 7.61719 17.1875 7.61719C16.0156 7.61719 14.974 7.95898 14.0625 8.64258L14.0625 7.61719L10.9375 7.61719L10.9375 18.5547L14.0625 18.5547L14.0625 11.8164L14.209 11.4746C14.2741 11.2467 14.4694 11.0189 14.7949 10.791C15.1204 10.5632 15.5111 10.4492 15.9668 10.4492C16.7806 10.4492 17.1875 10.9049 17.1875 11.8164L17.1875 18.5547Z" fill-rule="evenodd"/>
	</g>

</svg>