<?xml version="1.0" encoding="utf-8" ?>
<svg xmlns="http://www.w3.org/2000/svg" xmlns:xlink="http://www.w3.org/1999/xlink" width="25" height="25">
	<defs>
		<clipPath id="clip_0">
			<rect x="-779" y="-2985" width="1440" height="3020" clip-rule="evenodd"/>
		</clipPath>
	</defs>
	<g clip-path="url(#clip_0)">
		<path fill="rgb(255,255,255)" fill-opacity="0.69803923" stroke="none" d="M3.66211 3.66211C6.10353 1.22069 9.04946 0 12.5 0C15.9505 0 18.8965 1.22069 21.3379 3.66211C23.7793 6.10353 25 9.04946 25 12.5C25 15.9505 23.7793 18.8965 21.3379 21.3379C18.8965 23.7793 15.9505 25 12.5 25C9.04946 25 6.10353 23.7793 3.66211 21.3379C1.22069 18.8965 0 15.9505 0 12.5C0 9.04946 1.22069 6.10353 3.66211 3.66211ZM18.75 10.1074C18.75 9.97721 18.7337 9.84701 18.7012 9.7168C19.3197 9.26107 19.8405 8.72396 20.2637 8.10547C19.6777 8.36589 19.0918 8.52865 18.5059 8.59375C19.1569 8.20312 19.5964 7.63347 19.8242 6.88477C19.2383 7.24284 18.5872 7.48698 17.8711 7.61719C17.2852 6.96614 16.5365 6.64063 15.625 6.64063C14.7786 6.64063 14.0544 6.94173 13.4522 7.54394C12.8499 8.14616 12.5488 8.87044 12.5488 9.7168C12.5488 9.97722 12.5814 10.2214 12.6465 10.4492C10.0423 10.319 7.92644 9.2448 6.29883 7.22656C6.00586 7.71485 5.85938 8.23567 5.85938 8.78906C5.85938 9.86329 6.33138 10.7096 7.27539 11.3281C6.75456 11.3281 6.28255 11.1979 5.85938 10.9375L5.85938 10.9863C5.85938 11.735 6.09538 12.3861 6.56738 12.9395C7.03939 13.4928 7.63346 13.8509 8.34961 14.0137C8.05664 14.0788 7.77995 14.1113 7.51953 14.1113Q7.22656 14.1113 6.93359 14.0625C7.12891 14.681 7.48698 15.1855 8.00781 15.5762C8.52865 15.9668 9.13086 16.1784 9.81445 16.2109C8.67513 17.0898 7.40561 17.5293 6.00586 17.5293C5.74544 17.5293 5.5013 17.513 5.27344 17.4805C6.70574 18.3919 8.26822 18.8477 9.96094 18.8477C12.6302 18.8477 14.7624 17.9443 16.3574 16.1377C17.9525 14.331 18.75 12.321 18.75 10.1074Z" fill-rule="evenodd"/>
	</g>

</svg>