<?xml version="1.0" encoding="utf-8" ?>
<svg xmlns="http://www.w3.org/2000/svg" xmlns:xlink="http://www.w3.org/1999/xlink" width="25" height="25">
	<defs>
		<clipPath id="clip_0">
			<rect x="-817" y="-2985" width="1440" height="3020" clip-rule="evenodd"/>
		</clipPath>
	</defs>
	<g clip-path="url(#clip_0)">
		<path fill="rgb(255,255,255)" fill-opacity="0.69803923" stroke="none" d="M12.5 0C15.9445 0 18.8889 1.22221 21.3333 3.66667C23.7778 6.11112 25 9.05554 25 12.5C25 15.9445 23.7778 18.8889 21.3333 21.3333C18.8889 23.7778 15.9445 25 12.5 25C9.05554 25 6.11112 23.7778 3.66667 21.3333C1.22221 18.8889 0 15.9445 0 12.5C0 9.05554 1.22221 6.11112 3.66667 3.66667C6.11112 1.22221 9.05554 0 12.5 0ZM7 3L8.26667 3L8.93333 5.43333L9.6 3L10.8667 3L9.56667 6.83333L9.56667 9.56667L8.33333 9.56667L8.33333 6.83333L7 3ZM11.1667 5.96667L11.1667 8.33333C11.1667 8.71111 11.3 9.03889 11.5667 9.31667C11.8333 9.59445 12.1556 9.73333 12.5333 9.73333C12.9111 9.73333 13.2389 9.59445 13.5167 9.31667C13.7944 9.03889 13.9333 8.71111 13.9333 8.33333L13.9333 5.96667C13.9333 5.58889 13.7944 5.26111 13.5167 4.98333C13.2389 4.70555 12.9111 4.56667 12.5333 4.56667C12.1556 4.56667 11.8333 4.70555 11.5667 4.98333C11.3 5.26111 11.1667 5.58889 11.1667 5.96667ZM16.5 9.56667L16.5 9.16667C16.1444 9.47778 15.7889 9.63333 15.4333 9.63333C14.9444 9.63333 14.7 9.33334 14.7 8.73333L14.7 4.66667L15.8 4.66667L15.8 8.4C15.8 8.55556 15.8556 8.63333 15.9667 8.63333C16.1222 8.63333 16.3 8.53333 16.5 8.33333L16.5 4.66667L17.6 4.66667L17.6 9.56667L16.5 9.56667ZM12.1667 8.46667C12.1667 8.71111 12.2778 8.83333 12.5 8.83333C12.7444 8.83333 12.8667 8.71111 12.8667 8.46667L12.8667 5.83333C12.8667 5.61111 12.7556 5.5 12.5333 5.5C12.2889 5.5 12.1667 5.61111 12.1667 5.83333L12.1667 8.46667ZM19.2333 20.4C19.4556 20.2 19.6278 19.75 19.75 19.05C19.8722 18.35 19.9333 17.7 19.9333 17.1L19.9667 16.2333C19.9667 13.9222 19.7222 12.5222 19.2333 12.0333C19.0111 11.8333 18.3444 11.6722 17.2333 11.55C16.1222 11.4278 15.0667 11.3667 14.0667 11.3667L12.5333 11.3333C8.53331 11.3333 6.3 11.5667 5.83333 12.0333C5.63333 12.2333 5.47222 12.6833 5.35 13.3833C5.22778 14.0833 5.15555 14.7333 5.13333 15.3333L5.1 16.2333C5.1 18.5222 5.34444 19.9111 5.83333 20.4C6.05556 20.6 6.72222 20.7611 7.83333 20.8833C8.94445 21.0056 10 21.0778 11 21.1L12.5333 21.1C16.5334 21.1 18.7667 20.8667 19.2333 20.4ZM6.26667 13.2333L6.26667 14.1L7.26667 14.1L7.26667 19.1L8.26667 19.1L8.26667 14.1L9.26667 14.1L9.26667 13.2333L6.26667 13.2333ZM14.6 14.7333C15.1333 14.7333 15.4 15.0889 15.4 15.8L15.4 18.2C15.4 18.4889 15.3278 18.7222 15.1833 18.9C15.0389 19.0778 14.8444 19.1667 14.6 19.1667C14.4444 19.1667 14.2944 19.1333 14.15 19.0667C14.0056 19 13.9111 18.9333 13.8667 18.8667L13.7667 18.7667L13.7667 19.1L12.9 19.1L12.9 13.2333L13.7667 13.2333L13.7667 15.1C13.9889 14.8556 14.2667 14.7333 14.6 14.7333ZM17.3 14.6667C17.6556 14.6667 17.95 14.7833 18.1833 15.0167C18.4167 15.25 18.5333 15.5556 18.5333 15.9333L18.5333 17.0333L16.8667 17.0333L16.8667 17.8667C16.8667 18.1111 16.9333 18.2833 17.0667 18.3833C17.2 18.4833 17.3389 18.4778 17.4833 18.3667C17.6278 18.2556 17.7 18.0889 17.7 17.8667L17.7 17.6667L18.5333 17.6667L18.5333 17.8667C18.5333 18.4222 18.3222 18.8111 17.9 19.0333C17.4778 19.2556 17.0556 19.2556 16.6333 19.0333C16.2111 18.8111 16 18.4222 16 17.8667L16 15.9333C16 15.5556 16.1222 15.25 16.3667 15.0167C16.6111 14.7833 16.9222 14.6667 17.3 14.6667ZM11.4 14.7667L11.4 18.0667C11.2667 18.2222 11.1222 18.3278 10.9667 18.3833C10.8111 18.4389 10.7111 18.3444 10.6667 18.1L10.6667 14.7667L9.8 14.7667L9.8 18.4C9.8 18.7333 9.9 18.9556 10.1 19.0667C10.3 19.1778 10.5222 19.1833 10.7667 19.0833C11.0111 18.9833 11.2222 18.8333 11.4 18.6333L11.4 19.1L12.2667 19.1L12.2667 14.7667L11.4 14.7667ZM14.5 15.8333L14.5 18.1C14.5 18.2556 14.4556 18.3611 14.3667 18.4167C14.2778 18.4722 14.1778 18.4833 14.0667 18.45C13.9556 18.4167 13.8556 18.3556 13.7667 18.2667L13.7667 15.5667C13.9 15.4111 14.0556 15.3556 14.2333 15.4C14.4111 15.4444 14.5 15.5889 14.5 15.8333ZM16.8667 16.3667L16.8667 15.9333Q16.8667 15.4333 17.2667 15.4333C17.5556 15.4333 17.7 15.6 17.7 15.9333L17.7 16.3667L16.8667 16.3667Z" fill-rule="evenodd"/>
	</g>

</svg>